<svg width="427" height="384" viewBox="0 0 427 384" fill="none" xmlns="http://www.w3.org/2000/svg">
<path d="M4.01782 314.568C4.01782 299.104 16.5538 286.568 32.0178 286.568H73.4506C88.9146 286.568 101.451 299.104 101.451 314.568V355.123C101.451 370.587 88.9146 383.123 73.4506 383.123H32.0178C16.5538 383.123 4.01782 370.587 4.01782 355.123V314.568Z" fill="#041C32"/>
<g filter="url(#filter0_d_33_23)">
<mask id="path-2-inside-1_33_23" fill="white">
<path fill-rule="evenodd" clip-rule="evenodd" d="M151.653 163.652C142.257 143.12 139.91 120.83 146.517 99.5546C163.493 44.8823 233.163 17.6105 302.128 38.6413C371.093 59.6722 413.238 121.042 396.261 175.714C379.285 230.386 309.615 257.658 240.65 236.627C224.78 231.788 210.33 224.812 197.694 216.273L118.903 248.401L162.646 182.55C158.315 176.486 154.63 170.157 151.653 163.652Z"/>
</mask>
<path fill-rule="evenodd" clip-rule="evenodd" d="M151.653 163.652C142.257 143.12 139.91 120.83 146.517 99.5546C163.493 44.8823 233.163 17.6105 302.128 38.6413C371.093 59.6722 413.238 121.042 396.261 175.714C379.285 230.386 309.615 257.658 240.65 236.627C224.78 231.788 210.33 224.812 197.694 216.273L118.903 248.401L162.646 182.55C158.315 176.486 154.63 170.157 151.653 163.652Z" fill="#041C32"/>
<path d="M151.653 163.652L158.033 160.728L158.033 160.728L151.653 163.652ZM197.694 216.273L195.064 209.805L198.542 208.386L201.643 210.482L197.694 216.273ZM118.903 248.401L121.533 254.87L100.524 263.437L113.064 244.558L118.903 248.401ZM162.646 182.55L168.362 178.479L171.15 182.382L168.486 186.393L162.646 182.55ZM153.212 101.596C147.181 121.021 149.252 141.542 158.033 160.728L145.274 166.576C135.262 144.698 132.64 120.639 139.821 97.5128L153.212 101.596ZM300.052 45.3264C233.262 24.9589 168.621 51.9719 153.212 101.596L139.821 97.5128C158.365 37.7926 233.063 10.262 304.204 31.9562L300.052 45.3264ZM389.566 173.672C404.975 124.048 366.842 65.694 300.052 45.3264L304.204 31.9562C375.344 53.6504 421.501 118.036 402.957 177.756L389.566 173.672ZM242.726 229.942C309.516 250.31 374.156 223.297 389.566 173.672L402.957 177.756C384.413 237.476 309.714 265.007 238.574 243.313L242.726 229.942ZM201.643 210.482C213.698 218.627 227.515 225.304 242.726 229.942L238.574 243.313C222.044 238.272 206.962 230.997 193.744 222.065L201.643 210.482ZM116.273 241.933L195.064 209.805L200.324 222.742L121.533 254.87L116.273 241.933ZM168.486 186.393L124.743 252.244L113.064 244.558L156.807 178.707L168.486 186.393ZM158.033 160.728C160.817 166.812 164.275 172.758 168.362 178.479L156.931 186.621C152.354 180.214 148.443 173.502 145.274 166.576L158.033 160.728Z" fill="white" mask="url(#path-2-inside-1_33_23)"/>
</g>
<path d="M103.46 224.354C103.46 254.865 80.2993 279.6 51.7297 279.6C23.1602 279.6 -4.27605e-05 254.865 -4.27605e-05 224.354C-4.27605e-05 193.843 23.1602 169.108 51.7297 169.108C80.2993 169.108 103.46 193.843 103.46 224.354Z" fill="#041C32"/>
<g filter="url(#filter1_i_33_23)">
<path d="M256.414 107.6L262.946 85.71L267.594 87.0722L261.062 108.962L256.414 107.6ZM276.44 89.6647L276.552 90.0556C276.155 90.7315 275.687 91.4413 275.15 92.1848C274.626 92.9213 274.071 93.654 273.484 94.3829C272.906 95.1147 272.336 95.8051 271.773 96.4541L268.489 95.4918C268.808 94.9339 269.135 94.3461 269.472 93.7283C269.819 93.1134 270.155 92.4957 270.482 91.8749C270.818 91.2572 271.134 90.6549 271.428 90.0683C271.723 89.4817 271.989 88.9355 272.227 88.4299L276.44 89.6647ZM282.519 115.25L282.365 96.5298L282.23 96.4902C282.128 96.9054 281.974 97.533 281.766 98.3732C281.572 99.2064 281.356 100.093 281.119 101.033C280.882 101.973 280.652 102.817 280.429 103.566L277.391 113.747L273.237 112.53L279.769 90.6402L286.097 92.4945L286.29 110.754L286.38 110.781L296.878 95.6539L303.205 97.5082L296.674 119.398L292.34 118.128L295.432 107.767C295.637 107.078 295.884 106.288 296.172 105.395C296.47 104.506 296.76 103.663 297.041 102.866C297.325 102.059 297.539 101.454 297.681 101.051L297.546 101.011L286.777 116.498L282.519 115.25ZM207.15 115.209L195.04 135.464L189.747 133.913L190.21 121.544C190.215 121.307 190.235 120.949 190.269 120.471C190.303 119.992 190.344 119.472 190.392 118.911C190.443 118.34 190.493 117.807 190.543 117.311C190.606 116.808 190.665 116.413 190.718 116.125C190.605 116.395 190.433 116.752 190.203 117.195C189.983 117.641 189.739 118.112 189.471 118.609C189.214 119.108 188.966 119.573 188.729 120.003C188.492 120.433 188.308 120.759 188.177 120.981L181.8 131.584L176.522 130.038L177.461 106.509L182.035 107.849L181.273 120.619C181.246 121.001 181.208 121.457 181.159 121.985C181.12 122.517 181.069 123.072 181.005 123.65C180.954 124.221 180.892 124.773 180.82 125.305C180.761 125.831 180.697 126.284 180.627 126.665C180.79 126.3 180.986 125.88 181.215 125.405C181.447 124.919 181.685 124.43 181.93 123.937C182.188 123.437 182.434 122.978 182.668 122.558C182.902 122.138 183.1 121.8 183.264 121.544L190.117 110.217L194.51 111.505L194.045 124.703C194.034 124.993 194.005 125.381 193.958 125.867C193.924 126.345 193.878 126.863 193.82 127.422C193.763 127.98 193.698 128.525 193.626 129.058C193.567 129.583 193.502 130.037 193.432 130.418C193.651 129.939 193.926 129.363 194.257 128.69C194.602 128.009 194.95 127.335 195.301 126.667C195.663 126.002 195.97 125.446 196.223 125L202.577 113.869L207.15 115.209ZM216.003 141.607L203.377 137.907L209.909 116.017L222.534 119.717L221.4 123.52L213.423 121.183L211.988 125.989L219.411 128.164L218.276 131.967L210.854 129.792L209.169 135.437L217.146 137.774L216.003 141.607ZM240.039 148.651L234.131 146.92L229.536 127.565L229.401 127.526C229.235 128.226 229.063 128.93 228.885 129.638C228.706 130.345 228.528 131.053 228.349 131.76C228.174 132.458 227.997 133.16 227.818 133.868L224.744 144.169L220.591 142.952L227.123 121.062L232.986 122.78L237.615 141.965L237.72 141.996C237.902 141.311 238.078 140.63 238.248 139.953C238.418 139.275 238.587 138.598 238.757 137.92C238.936 137.245 239.116 136.571 239.295 135.896L242.387 125.535L246.571 126.761L240.039 148.651ZM245.622 143.384L246.739 139.641L254.791 142L253.674 145.743L245.622 143.384ZM255.468 153.173L262 131.283L266.648 132.645L261.26 150.702L270.152 153.308L269.008 157.141L255.468 153.173ZM272.831 158.261L279.363 136.371L284.012 137.733L277.48 159.623L272.831 158.261ZM302.445 166.939L296.538 165.208L291.942 145.854L291.808 145.814C291.642 146.515 291.47 147.219 291.291 147.926C291.113 148.634 290.934 149.341 290.756 150.049C290.58 150.746 290.403 151.449 290.225 152.156L287.151 162.457L282.998 161.24L289.53 139.35L295.392 141.068L300.022 160.254L300.126 160.284C300.309 159.6 300.485 158.919 300.655 158.241C300.824 157.564 300.994 156.886 301.163 156.209C301.343 155.534 301.523 154.859 301.702 154.185L304.794 143.824L308.977 145.05L302.445 166.939ZM315.955 170.899L322.487 149.009L327.135 150.371L321.747 168.428L330.639 171.033L329.495 174.866L315.955 170.899ZM345.944 179.687L333.319 175.987L339.851 154.097L352.476 157.797L351.341 161.6L343.364 159.262L341.93 164.068L349.352 166.244L348.217 170.047L340.795 167.872L339.111 173.516L347.088 175.854L345.944 179.687ZM363.158 184.731L350.532 181.031L357.064 159.141L369.69 162.841L368.555 166.644L360.578 164.307L359.144 169.113L366.566 171.288L365.431 175.091L358.009 172.916L356.324 178.561L364.301 180.898L363.158 184.731Z" fill="white"/>
</g>
<defs>
<filter id="filter0_d_33_23" x="114.903" y="31.5413" width="289.116" height="224.86" filterUnits="userSpaceOnUse" color-interpolation-filters="sRGB">
<feFlood flood-opacity="0" result="BackgroundImageFix"/>
<feColorMatrix in="SourceAlpha" type="matrix" values="0 0 0 0 0 0 0 0 0 0 0 0 0 0 0 0 0 0 127 0" result="hardAlpha"/>
<feOffset dy="4"/>
<feGaussianBlur stdDeviation="2"/>
<feComposite in2="hardAlpha" operator="out"/>
<feColorMatrix type="matrix" values="0 0 0 0 0 0 0 0 0 0 0 0 0 0 0 0 0 0 0.25 0"/>
<feBlend mode="normal" in2="BackgroundImageFix" result="effect1_dropShadow_33_23"/>
<feBlend mode="normal" in="SourceGraphic" in2="effect1_dropShadow_33_23" result="shape"/>
</filter>
<filter id="filter1_i_33_23" x="170.929" y="64.3457" width="211.342" height="121.386" filterUnits="userSpaceOnUse" color-interpolation-filters="sRGB">
<feFlood flood-opacity="0" result="BackgroundImageFix"/>
<feBlend mode="normal" in="SourceGraphic" in2="BackgroundImageFix" result="shape"/>
<feColorMatrix in="SourceAlpha" type="matrix" values="0 0 0 0 0 0 0 0 0 0 0 0 0 0 0 0 0 0 127 0" result="hardAlpha"/>
<feOffset dy="1"/>
<feGaussianBlur stdDeviation="1.5"/>
<feComposite in2="hardAlpha" operator="arithmetic" k2="-1" k3="1"/>
<feColorMatrix type="matrix" values="0 0 0 0 0 0 0 0 0 0 0 0 0 0 0 0 0 0 0.25 0"/>
<feBlend mode="normal" in2="shape" result="effect1_innerShadow_33_23"/>
</filter>
</defs>
</svg>
