<svg width="185" height="176" viewBox="0 0 185 176" fill="none" xmlns="http://www.w3.org/2000/svg">
<path d="M184.544 87.6117C184.544 135.998 143.232 175.223 92.2718 175.223C41.3115 175.223 0 135.998 0 87.6117C0 39.2251 41.3115 0 92.2718 0C143.232 0 184.544 39.2251 184.544 87.6117Z" fill="#041C32"/>
<path d="M87.8984 69.3066L78.8164 105H70.1982L65.3643 86.25C65.2666 85.8919 65.1364 85.3467 64.9736 84.6143C64.8109 83.8818 64.64 83.0843 64.4609 82.2217C64.2819 81.3428 64.1191 80.5208 63.9727 79.7559C63.8424 78.9746 63.7529 78.3561 63.7041 77.9004C63.6553 78.3561 63.5576 78.9665 63.4111 79.7314C63.2809 80.4964 63.1263 81.3102 62.9473 82.1729C62.7845 83.0355 62.6217 83.8411 62.459 84.5898C62.2962 85.3385 62.166 85.9082 62.0684 86.2988L57.2588 105H48.665L39.5586 69.3066H47.0049L51.5703 88.7891C51.7005 89.375 51.847 90.0749 52.0098 90.8887C52.1888 91.7025 52.3597 92.557 52.5225 93.4521C52.7015 94.3311 52.8561 95.1855 52.9863 96.0156C53.1328 96.8294 53.2386 97.5374 53.3037 98.1396C53.3851 97.5212 53.4909 96.805 53.6211 95.9912C53.7513 95.1611 53.8896 94.3229 54.0361 93.4766C54.1989 92.6139 54.3617 91.8164 54.5244 91.084C54.6872 90.3516 54.8337 89.7575 54.9639 89.3018L60.1641 69.3066H67.3174L72.5176 89.3018C72.6315 89.7412 72.7617 90.3353 72.9082 91.084C73.071 91.8164 73.2337 92.6139 73.3965 93.4766C73.5592 94.3392 73.7057 95.1855 73.8359 96.0156C73.9824 96.8294 74.0882 97.5374 74.1533 98.1396C74.2673 97.3258 74.4219 96.3411 74.6172 95.1855C74.8288 94.0137 75.0485 92.8499 75.2764 91.6943C75.5205 90.5387 75.7321 89.5703 75.9111 88.7891L80.4521 69.3066H87.8984ZM92.3906 105V69.3066H99.959V98.75H114.437V105H92.3906ZM120.662 105V69.3066H128.23V98.75H142.708V105H120.662Z" fill="white"/>
</svg>
